<svg id="visual" viewBox="0 0 900 600" width="900" height="600" xmlns="http://www.w3.org/2000/svg" xmlns:xlink="http://www.w3.org/1999/xlink" version="1.1"><rect x="0" y="0" width="900" height="600" fill="#001220"></rect><path d="M0 202L25 224.2C50 246.3 100 290.7 150 291.2C200 291.7 250 248.3 300 244.2C350 240 400 275 450 294.3C500 313.7 550 317.3 600 303.2C650 289 700 257 750 258.2C800 259.3 850 293.7 875 310.8L900 328L900 601L875 601C850 601 800 601 750 601C700 601 650 601 600 601C550 601 500 601 450 601C400 601 350 601 300 601C250 601 200 601 150 601C100 601 50 601 25 601L0 601Z" fill="#576cbc"></path><path d="M0 272L25 269.2C50 266.3 100 260.7 150 268.2C200 275.7 250 296.3 300 313.2C350 330 400 343 450 345.3C500 347.7 550 339.3 600 327.2C650 315 700 299 750 287.3C800 275.7 850 268.3 875 264.7L900 261L900 601L875 601C850 601 800 601 750 601C700 601 650 601 600 601C550 601 500 601 450 601C400 601 350 601 300 601C250 601 200 601 150 601C100 601 50 601 25 601L0 601Z" fill="#547dc6"></path><path d="M0 385L25 370.7C50 356.3 100 327.7 150 329.8C200 332 250 365 300 382.3C350 399.7 400 401.3 450 385.7C500 370 550 337 600 329.2C650 321.3 700 338.7 750 336.2C800 333.7 850 311.3 875 300.2L900 289L900 601L875 601C850 601 800 601 750 601C700 601 650 601 600 601C550 601 500 601 450 601C400 601 350 601 300 601C250 601 200 601 150 601C100 601 50 601 25 601L0 601Z" fill="#568ece"></path><path d="M0 361L25 363.8C50 366.7 100 372.3 150 379.8C200 387.3 250 396.7 300 393C350 389.3 400 372.7 450 370.7C500 368.7 550 381.3 600 391.5C650 401.7 700 409.3 750 404.2C800 399 850 381 875 372L900 363L900 601L875 601C850 601 800 601 750 601C700 601 650 601 600 601C550 601 500 601 450 601C400 601 350 601 300 601C250 601 200 601 150 601C100 601 50 601 25 601L0 601Z" fill="#5e9dd4"></path><path d="M0 391L25 389.8C50 388.7 100 386.3 150 386.3C200 386.3 250 388.7 300 397.8C350 407 400 423 450 423.8C500 424.7 550 410.3 600 402.3C650 394.3 700 392.7 750 396.5C800 400.3 850 409.7 875 414.3L900 419L900 601L875 601C850 601 800 601 750 601C700 601 650 601 600 601C550 601 500 601 450 601C400 601 350 601 300 601C250 601 200 601 150 601C100 601 50 601 25 601L0 601Z" fill="#6bacda"></path><path d="M0 433L25 444.2C50 455.3 100 477.7 150 478.2C200 478.7 250 457.3 300 456C350 454.7 400 473.3 450 479.8C500 486.3 550 480.7 600 477.7C650 474.7 700 474.3 750 468.2C800 462 850 450 875 444L900 438L900 601L875 601C850 601 800 601 750 601C700 601 650 601 600 601C550 601 500 601 450 601C400 601 350 601 300 601C250 601 200 601 150 601C100 601 50 601 25 601L0 601Z" fill="#7cbbde"></path><path d="M0 500L25 503C50 506 100 512 150 509.7C200 507.3 250 496.7 300 497C350 497.3 400 508.7 450 507.8C500 507 550 494 600 493.3C650 492.7 700 504.3 750 504.2C800 504 850 492 875 486L900 480L900 601L875 601C850 601 800 601 750 601C700 601 650 601 600 601C550 601 500 601 450 601C400 601 350 601 300 601C250 601 200 601 150 601C100 601 50 601 25 601L0 601Z" fill="#8fc9e3"></path><path d="M0 531L25 533.3C50 535.7 100 540.3 150 543C200 545.7 250 546.3 300 545.8C350 545.3 400 543.7 450 546.8C500 550 550 558 600 562.3C650 566.7 700 567.3 750 561.7C800 556 850 544 875 538L900 532L900 601L875 601C850 601 800 601 750 601C700 601 650 601 600 601C550 601 500 601 450 601C400 601 350 601 300 601C250 601 200 601 150 601C100 601 50 601 25 601L0 601Z" fill="#a5d7e8"></path></svg>