<svg width="160" height="99" viewBox="0 0 160 99" fill="none" xmlns="http://www.w3.org/2000/svg">
<path d="M82.6767 5.59888C82.6767 5.59888 53.1975 18.8905 53.1975 26.5833C53.1975 34.2812 52.7184 50.1041 57.5882 52.8072C62.4579 55.5103 77.0829 67.901 82.6767 64.7968C88.2652 61.6978 109.031 55.4999 108.682 35.4426C108.338 15.3905 80.9371 35.4426 80.9371 35.4426L82.6767 5.59888Z" fill="#7BB9C8"/>
<mask id="mask0_505_146" style="mask-type:luminance" maskUnits="userSpaceOnUse" x="51" y="6" width="60" height="62">
<path d="M51.4424 6.10938H110.442V67.4427H51.4424V6.10938Z" fill="white"/>
</mask>
<g mask="url(#mask0_505_146)">
<path d="M80.9427 67.1614C80.7083 67.1614 80.4792 67.1041 80.2708 66.9895L52.526 51.5937C52.0885 51.3489 51.8125 50.8801 51.8125 50.3697V20.9895C51.8125 20.4791 52.0885 20.0103 52.526 19.7603L76.6354 6.38532C77.3073 6.02074 78.151 6.25511 78.526 6.9374C78.8958 7.61449 78.651 8.46344 77.9792 8.83844L54.5833 21.8124V49.5416L80.9427 64.1614L107.297 49.5416V23.3541L85.2448 35.5884C84.5729 35.9582 83.7344 35.7134 83.3594 35.0364C82.9896 34.3593 83.2344 33.5051 83.9063 33.1353L108.016 19.7603C108.443 19.5207 108.964 19.5312 109.391 19.7812C109.813 20.0364 110.073 20.4947 110.073 20.9895V50.3697C110.073 50.8801 109.797 51.3489 109.354 51.5937L81.6094 66.9895C81.401 67.1041 81.1719 67.1614 80.9427 67.1614Z" fill="black"/>
</g>
<mask id="mask1_505_146" style="mask-type:luminance" maskUnits="userSpaceOnUse" x="75" y="0" width="13" height="12">
<path d="M75.0674 0H87.0674V11.4427H75.0674V0Z" fill="white"/>
</mask>
<g mask="url(#mask1_505_146)">
<path d="M80.9427 11.1927C77.8802 11.1927 75.3906 8.68229 75.3906 5.59896C75.3906 2.51042 77.8802 0 80.9427 0C84 0 86.4896 2.51042 86.4896 5.59896C86.4896 8.68229 84 11.1927 80.9427 11.1927ZM80.9427 2.79688C79.4115 2.79688 78.1667 4.05729 78.1667 5.59896C78.1667 7.14063 79.4115 8.39583 80.9427 8.39583C82.474 8.39583 83.7135 7.14063 83.7135 5.59896C83.7135 4.05729 82.474 2.79688 80.9427 2.79688Z" fill="black"/>
</g>
<path d="M80.9374 41.9739C79.6561 41.9739 78.3645 41.526 77.3176 40.6145C76.1926 39.6405 75.5155 38.2812 75.4113 36.7916C75.2968 35.2968 75.7707 33.8541 76.7395 32.7187C78.7395 30.3853 82.2499 30.1197 84.5624 32.1405C85.6874 33.1145 86.3645 34.4739 86.4686 35.9635C86.5832 37.4583 86.1093 38.901 85.1405 40.0312C84.0468 41.3124 82.4999 41.9739 80.9374 41.9739ZM80.9426 33.578C80.1666 33.578 79.3853 33.9062 78.8384 34.5468C78.3541 35.1145 78.1197 35.8333 78.177 36.5833C78.2291 37.328 78.5676 38.0051 79.1301 38.4947C80.2863 39.4999 82.0416 39.3749 83.0416 38.203C83.5259 37.6353 83.7603 36.9166 83.7082 36.1666C83.6509 35.4218 83.3124 34.7447 82.7551 34.2551C82.2291 33.802 81.5832 33.578 80.9426 33.578Z" fill="black"/>
<path d="M0 95.5256V77.9006C0 77.6506 0.125 77.5256 0.375 77.5256H12.8542C13.1042 77.5256 13.2292 77.6506 13.2292 77.9006V79.1923C13.2292 79.4423 13.1042 79.5673 12.8542 79.5673H2.02083V85.6923H11.4167C11.5 85.6923 11.5833 85.734 11.6667 85.8173C11.75 85.9006 11.7917 85.984 11.7917 86.0673V87.359C11.7917 87.4736 11.75 87.5621 11.6667 87.6298C11.5833 87.7027 11.5 87.734 11.4167 87.734H2.02083V93.859H12.8542C12.9635 93.859 13.0521 93.9006 13.125 93.984C13.1927 94.0673 13.2292 94.1506 13.2292 94.234V95.5256C13.2292 95.7756 13.1042 95.9006 12.8542 95.9006H0.375C0.125 95.9006 0 95.7756 0 95.5256Z" fill="black"/>
<path d="M23.7536 94.9006V90.1714C23.7536 89.3693 23.5869 88.8276 23.2536 88.5464C23.0973 88.437 22.889 88.3537 22.6286 88.2964C22.363 88.2443 22.0765 88.2026 21.7744 88.1714C21.5244 88.1297 21.3994 87.9943 21.3994 87.7547V85.6714C21.3994 85.5881 21.4307 85.5047 21.5036 85.4214C21.5713 85.3381 21.6598 85.2964 21.7744 85.2964C22.0765 85.2703 22.363 85.2287 22.6286 85.1714C22.889 85.1037 23.0973 85.0151 23.2536 84.9006C23.5869 84.6401 23.7536 84.0881 23.7536 83.2547V78.5256C23.7536 77.9839 23.8473 77.4787 24.0452 77.0047C24.2536 76.5203 24.5296 76.1037 24.8786 75.7547C25.238 75.411 25.6546 75.1297 26.1286 74.9214C26.613 74.7131 27.1286 74.6089 27.6702 74.6089H28.4411C28.6911 74.6089 28.8161 74.7339 28.8161 74.9839V76.2756C28.8161 76.3745 28.7796 76.4631 28.7119 76.5464C28.639 76.6193 28.5505 76.6506 28.4411 76.6506H27.6702C27.139 76.6506 26.6963 76.8381 26.3369 77.2131C25.9723 77.5776 25.7952 78.0151 25.7952 78.5256V83.2547C25.7952 84.1714 25.5557 84.937 25.0869 85.5464C24.9046 85.7964 24.738 85.9735 24.5869 86.0672L23.7536 86.7547L24.5869 87.3797C24.738 87.4943 24.9046 87.6714 25.0869 87.9214C25.5557 88.4943 25.7952 89.2443 25.7952 90.1714V94.9006C25.7952 95.4318 25.9723 95.8797 26.3369 96.2547C26.6963 96.6297 27.139 96.8172 27.6702 96.8172H28.4411C28.6911 96.8172 28.8161 96.9422 28.8161 97.1922V98.4422C28.8161 98.6922 28.6911 98.8172 28.4411 98.8172H27.6702C27.1286 98.8172 26.613 98.7131 26.1286 98.5047C25.6546 98.3068 25.238 98.0308 24.8786 97.6714C24.5296 97.3224 24.2536 96.9058 24.0452 96.4214C23.8473 95.9474 23.7536 95.4422 23.7536 94.9006Z" fill="black"/>
<path d="M46.263 77.5256C46.3724 77.5256 46.4766 77.5673 46.5755 77.6506C46.6693 77.7236 46.7318 77.7965 46.763 77.8798L50.4922 87.1923C50.5339 87.2913 50.5599 87.4111 50.5755 87.5465C50.6016 87.6871 50.6172 87.8121 50.6172 87.9215V95.5256C50.6172 95.7756 50.4922 95.9006 50.2422 95.9006H48.9922C48.7422 95.9006 48.6172 95.7756 48.6172 95.5256V90.5673H38.9089V95.5256C38.9089 95.7756 38.7839 95.9006 38.5339 95.9006H37.2422C36.9922 95.9006 36.8672 95.7756 36.8672 95.5256V87.9215C36.8672 87.8121 36.8776 87.6871 36.9089 87.5465C36.9349 87.4111 36.9609 87.2913 36.9922 87.1923L40.7214 77.8798C40.763 77.7965 40.8307 77.7236 40.9297 77.6506C41.0391 77.5673 41.138 77.5256 41.2214 77.5256H46.263ZM48.6172 88.5673V87.9215L45.263 79.5673H42.2422L38.9089 87.9215V88.5673H48.6172Z" fill="black"/>
<path d="M61.4189 95.5256V79.5673H55.9189C55.6689 79.5673 55.5439 79.4423 55.5439 79.1923V77.9006C55.5439 77.6506 55.6689 77.5256 55.9189 77.5256H68.9398C69.1898 77.5256 69.3148 77.6506 69.3148 77.9006V79.1923C69.3148 79.4423 69.1898 79.5673 68.9398 79.5673H63.4398V95.5256C63.4398 95.6402 63.3981 95.7288 63.3148 95.7965C63.2419 95.8694 63.1585 95.9006 63.0648 95.9006H61.7939C61.5439 95.9006 61.4189 95.7756 61.4189 95.5256Z" fill="black"/>
<path d="M80.0742 95.5256V79.5673H74.5742C74.3242 79.5673 74.1992 79.4423 74.1992 79.1923V77.9006C74.1992 77.6506 74.3242 77.5256 74.5742 77.5256H87.5951C87.8451 77.5256 87.9701 77.6506 87.9701 77.9006V79.1923C87.9701 79.4423 87.8451 79.5673 87.5951 79.5673H82.0951V95.5256C82.0951 95.6402 82.0534 95.7288 81.9701 95.7965C81.8971 95.8694 81.8138 95.9006 81.7201 95.9006H80.4492C80.1992 95.9006 80.0742 95.7756 80.0742 95.5256Z" fill="black"/>
<path d="M93.251 95.5256V77.9006C93.251 77.6506 93.376 77.5256 93.626 77.5256H106.105C106.355 77.5256 106.48 77.6506 106.48 77.9006V79.1923C106.48 79.4423 106.355 79.5673 106.105 79.5673H95.2718V85.6923H104.668C104.751 85.6923 104.834 85.734 104.918 85.8173C105.001 85.9006 105.043 85.984 105.043 86.0673V87.359C105.043 87.4736 105.001 87.5621 104.918 87.6298C104.834 87.7027 104.751 87.734 104.668 87.734H95.2718V93.859H106.105C106.215 93.859 106.303 93.9006 106.376 93.984C106.444 94.0673 106.48 94.1506 106.48 94.234V95.5256C106.48 95.7756 106.355 95.9006 106.105 95.9006H93.626C93.376 95.9006 93.251 95.7756 93.251 95.5256Z" fill="black"/>
<path d="M123.213 95.5256V87.8381L113.505 79.8173V95.5256C113.505 95.7756 113.38 95.9006 113.13 95.9006H111.838C111.755 95.9006 111.671 95.8694 111.588 95.7965C111.505 95.7288 111.463 95.6402 111.463 95.5256V77.9006C111.463 77.8069 111.505 77.7236 111.588 77.6506C111.671 77.5673 111.755 77.5256 111.838 77.5256H113.63C113.88 77.5256 114.098 77.609 114.296 77.7756L123.213 85.1298V77.9006C123.213 77.6506 123.338 77.5256 123.588 77.5256H124.88C125.13 77.5256 125.255 77.6506 125.255 77.9006V95.5256C125.255 95.7756 125.13 95.9006 124.88 95.9006H123.588C123.338 95.9006 123.213 95.7756 123.213 95.5256Z" fill="black"/>
<path d="M130.119 95.5256V77.9006C130.119 77.8173 130.161 77.734 130.244 77.6506C130.327 77.5673 130.411 77.5256 130.494 77.5256H139.994C140.536 77.5256 141.041 77.6298 141.515 77.8381C141.984 78.0465 142.395 78.3329 142.744 78.6923C143.104 79.0413 143.39 79.4579 143.598 79.9423C143.807 80.4163 143.911 80.9163 143.911 81.4423V91.984C143.911 92.5256 143.807 93.0413 143.598 93.5256C143.39 93.9996 143.104 94.4111 142.744 94.7548C142.395 95.1038 141.984 95.3798 141.515 95.5881C141.041 95.7965 140.536 95.9006 139.994 95.9006H130.494C130.411 95.9006 130.327 95.8694 130.244 95.7965C130.161 95.7288 130.119 95.6402 130.119 95.5256ZM132.161 93.859H139.994C140.505 93.859 140.942 93.6819 141.307 93.3173C141.682 92.9579 141.869 92.5152 141.869 91.984V81.4423C141.869 80.9319 141.682 80.4944 141.307 80.1298C140.942 79.7548 140.505 79.5673 139.994 79.5673H132.161V93.859Z" fill="black"/>
<path d="M151.962 98.4422V97.1922C151.962 96.9422 152.087 96.8172 152.337 96.8172H153.129C153.655 96.8172 154.097 96.6297 154.462 96.2547C154.821 95.8797 155.004 95.4318 155.004 94.9006V90.1714C155.004 89.2287 155.222 88.4735 155.67 87.9006C155.764 87.8068 155.847 87.7131 155.92 87.6297C156.004 87.5464 156.092 87.4631 156.191 87.3797L157.045 86.7547L156.212 86.0672C156.014 85.9318 155.837 85.7547 155.67 85.5464C155.222 84.9787 155.004 84.2131 155.004 83.2547V78.5256C155.004 78.0151 154.821 77.5776 154.462 77.2131C154.097 76.8381 153.655 76.6506 153.129 76.6506H152.337C152.222 76.6506 152.134 76.6193 152.066 76.5464C151.993 76.4631 151.962 76.3745 151.962 76.2756V74.9839C151.962 74.7339 152.087 74.6089 152.337 74.6089H153.129C153.67 74.6089 154.175 74.7131 154.649 74.9214C155.118 75.1297 155.53 75.411 155.879 75.7547C156.222 76.1037 156.504 76.5203 156.712 77.0047C156.92 77.4787 157.024 77.9839 157.024 78.5256V83.2547C157.024 84.0881 157.196 84.6401 157.545 84.9006C157.67 85.0151 157.863 85.1037 158.129 85.1714C158.405 85.2287 158.696 85.2703 159.004 85.2964C159.113 85.2964 159.201 85.3381 159.274 85.4214C159.342 85.5047 159.379 85.5881 159.379 85.6714V87.7547C159.379 87.9943 159.254 88.1297 159.004 88.1714C158.696 88.2026 158.405 88.2443 158.129 88.2964C157.863 88.3537 157.67 88.437 157.545 88.5464C157.196 88.8381 157.024 89.3797 157.024 90.1714V94.9006C157.024 95.4422 156.92 95.9474 156.712 96.4214C156.504 96.9058 156.222 97.3224 155.879 97.6714C155.53 98.0308 155.118 98.3068 154.649 98.5047C154.175 98.7131 153.67 98.8172 153.129 98.8172H152.337C152.087 98.8172 151.962 98.6922 151.962 98.4422Z" fill="black"/>
</svg>
